<?xml version="1.0" encoding="UTF-8" standalone="no"?>
<svg
   width="24"
   height="24"
   viewBox="0 0 24 24"
   fill="none"
   version="1.1"
   id="svg12"
   sodipodi:docname="CFEngine Build Icon - Black.svg"
   inkscape:version="1.1.1 (3bf5ae0d25, 2021-09-20)"
   xmlns:inkscape="http://www.inkscape.org/namespaces/inkscape"
   xmlns:sodipodi="http://sodipodi.sourceforge.net/DTD/sodipodi-0.dtd"
   xmlns="http://www.w3.org/2000/svg"
   xmlns:svg="http://www.w3.org/2000/svg">
  <defs
     id="defs16" />
  <sodipodi:namedview
     id="namedview14"
     pagecolor="#ffffff"
     bordercolor="#666666"
     borderopacity="1.0"
     inkscape:pageshadow="2"
     inkscape:pageopacity="0.0"
     inkscape:pagecheckerboard="0"
     showgrid="false"
     inkscape:zoom="16.99"
     inkscape:cx="12.301354"
     inkscape:cy="12.007063"
     inkscape:window-width="1920"
     inkscape:window-height="1051"
     inkscape:window-x="2560"
     inkscape:window-y="0"
     inkscape:window-maximized="0"
     inkscape:current-layer="svg12" />
  <rect
     x="23"
     y="1"
     width="22"
     height="22"
     rx="5"
     transform="rotate(90 23 1)"
     stroke="black"
     stroke-width="2"
     id="rect2" />
  <path
     d="M10.2064 7.43635C10.2064 8.96397 8.96415 10.2062 7.43652 10.2062C5.90889 10.2062 4.66668 8.96397 4.66668 7.43635C4.66668 5.90872 5.90889 4.6665 7.43652 4.6665C8.96415 4.6665 10.2064 5.90872 10.2064 7.43635Z"
     fill="black"
     stroke="black"
     stroke-width="2"
     id="path4" />
  <path
     d="M19.3333 16.5633C19.3333 18.0909 18.091 19.3331 16.5634 19.3331C15.0358 19.3331 13.7936 18.0909 13.7936 16.5633C13.7936 15.0357 15.0358 13.7935 16.5634 13.7935C18.091 13.7935 19.3333 15.0357 19.3333 16.5633Z"
     fill="black"
     stroke="black"
     stroke-width="2"
     id="path6" />
  <path
     d="M19.6331 7.43635C19.6331 9.12966 18.2566 10.5062 16.5633 10.5062C14.8699 10.5062 13.4934 9.12966 13.4934 7.43635C13.4934 5.74303 14.8699 4.3665 16.5633 4.3665C18.2566 4.3665 19.6331 5.74303 19.6331 7.43635Z"
     fill="white"
     fill-opacity="0.9"
     stroke="black"
     stroke-width="1.4"
     id="path8"
     style="stroke-width:1.5;stroke-miterlimit:4;stroke-dasharray:none" />
  <path
     d="M10.2064 16.5633C10.2064 18.0909 8.96415 19.3331 7.43652 19.3331C5.90889 19.3331 4.66668 18.0909 4.66668 16.5633C4.66668 15.0357 5.90889 13.7935 7.43652 13.7935C8.96415 13.7935 10.2064 15.0357 10.2064 16.5633Z"
     fill="black"
     stroke="black"
     stroke-width="2"
     id="path10" />
</svg>
